<?xml version="1.0" encoding="UTF-8"?>
<svg version="1.1" xmlns="http://www.w3.org/2000/svg" width="985" height="980">
<path d="M0 0 C2.57252142 -0.00270063 5.14504185 -0.00658778 7.71755981 -0.01159668 C13.07809249 -0.01745845 18.43833355 -0.00942384 23.79882812 0.00976562 C29.96632434 0.03159114 36.13329257 0.0244204 42.30077636 0.00246 C48.28253176 -0.01797252 54.26403187 -0.01569422 60.24582291 -0.00401306 C62.77103882 -0.00135791 65.29626838 -0.00457252 67.82146835 -0.01393127 C71.3525281 -0.02415518 74.88258843 -0.00851583 78.41357422 0.01367188 C79.44135483 0.00557495 80.46913544 -0.00252197 81.52806091 -0.01086426 C89.10720754 0.07681431 97.33246622 1.10781139 103.17297173 6.36907196 C107.09615139 10.79312557 108.49459336 13.85074354 108.41186523 19.92431641 C107.47172427 28.70719059 102.63015416 36.72888243 98.2578125 44.21875 C97.69046387 45.20641357 97.12311523 46.19407715 96.53857422 47.21166992 C94.74663599 50.32410007 92.94150977 53.42853335 91.1328125 56.53125 C90.27623047 58.00513184 90.27623047 58.00513184 89.40234375 59.50878906 C86.51973546 64.46760093 83.62807512 69.42103282 80.73046875 74.37109375 C75.11602575 83.97067238 69.5748093 93.61260951 64.02392578 103.24902344 C60.89601102 108.67784942 57.76422802 114.10444281 54.6328125 119.53125 C53.38279371 121.69790583 52.13279372 123.8645725 50.8828125 126.03125 C43.38281251 139.03124998 43.38281251 139.03124998 41.50708008 142.2824707 C40.2594651 144.44503583 39.01190634 146.60763339 37.7644043 148.77026367 C34.60337801 154.24995371 31.44131941 159.72904358 28.27734375 165.20703125 C22.51973028 175.17772883 16.77059357 185.15264741 11.0703125 195.15625 C6.28524353 203.55057313 1.42868058 211.90164647 -3.44775391 220.24316406 C-9.667083 230.88690245 -15.82286667 241.56696631 -21.97607422 252.24902344 C-25.10398898 257.67784942 -28.23577198 263.10444281 -31.3671875 268.53125 C-32.61720629 270.69790583 -33.86720628 272.8645725 -35.1171875 275.03125 C-42.6171875 288.03125 -42.6171875 288.03125 -44.49291992 291.2824707 C-45.7405349 293.44503583 -46.98809366 295.60763339 -48.2355957 297.77026367 C-51.39662199 303.24995371 -54.55868059 308.72904358 -57.72265625 314.20703125 C-63.45706128 324.1373424 -69.18502056 334.07093715 -74.8671875 344.03125 C-84.68598614 361.23941964 -94.6043392 378.38949287 -104.59936523 395.49584961 C-110.76593675 406.05661152 -116.87191025 416.65210666 -122.97607422 427.24902344 C-126.10398898 432.67784942 -129.23577198 438.10444281 -132.3671875 443.53125 C-133.61720629 445.69790583 -134.86720628 447.8645725 -136.1171875 450.03125 C-143.6171875 463.03125 -151.1171875 476.03125 -158.6171875 489.03125 C-159.23601807 490.10391113 -159.85484863 491.17657227 -160.49243164 492.28173828 C-161.74154268 494.44682071 -162.99072879 496.61185982 -164.23999023 498.77685547 C-167.37921059 504.21740706 -170.51709313 509.65872216 -173.65234375 515.1015625 C-179.73540313 525.65856834 -185.8377208 536.20319381 -191.9921875 546.71875 C-196.5171949 554.4529511 -200.97406645 562.22140503 -205.3671875 570.03125 C-210.32236326 578.84028441 -215.36626376 587.5928426 -220.48291016 596.30908203 C-223.63008222 601.67490996 -226.742342 607.05798129 -229.8046875 612.47265625 C-230.46870466 613.64163841 -231.13292867 614.8105031 -231.79736328 615.97924805 C-233.05283951 618.19154027 -234.30170653 620.4076024 -235.54248047 622.62817383 C-247.52274175 643.67949016 -247.52274175 643.67949016 -258.90234375 647.15234375 C-264.00293541 648.10563352 -267.4076044 646.97139924 -271.8671875 644.53125 C-276.07974144 641.58990014 -278.6351197 638.25655783 -281.2421875 633.90625 C-281.66081055 633.22240234 -282.07943359 632.53855469 -282.51074219 631.83398438 C-287.83209184 623.06537529 -292.90624078 614.14743719 -298.0078125 605.25 C-301.59658239 598.99210495 -305.22481026 592.75805688 -308.8671875 586.53125 C-313.75284393 578.17418793 -318.60124859 569.79648982 -323.4296875 561.40625 C-328.57283661 552.47330773 -333.77246979 543.57665275 -339.02807617 534.70947266 C-351.81612941 513.12756063 -364.32688637 491.38332842 -376.83203125 469.63671875 C-385.0031558 455.42528561 -385.0031558 455.42528561 -393.3918457 441.34204102 C-396.99554864 435.37441468 -400.45655126 429.3255014 -403.9296875 423.28125 C-409.17417249 414.15626905 -414.48535449 405.07616565 -419.8671875 396.03125 C-425.77742797 386.09485082 -431.60012501 376.11220105 -437.36328125 366.08984375 C-441.50478598 358.887985 -445.67426006 351.70328512 -449.8671875 344.53125 C-454.66743164 336.31883289 -459.43446576 328.08807433 -464.1796875 319.84375 C-469.88501593 309.93386847 -475.6495601 300.06032241 -481.44232178 290.20144653 C-487.23190357 280.34611387 -492.96410161 270.45949839 -498.66235352 260.55102539 C-502.74914979 253.44975227 -506.87674064 246.37434025 -511.07592773 239.33886719 C-513.8671875 234.63716393 -513.8671875 234.63716393 -513.8671875 233.53125 C-463.93427823 232.07532284 -413.36548979 241.76358064 -365.8671875 256.53125 C-365.00432129 256.79341309 -364.14145508 257.05557617 -363.25244141 257.32568359 C-348.36569717 261.87227578 -334.11754785 267.78191428 -319.93896484 274.17529297 C-317.35772025 275.31471694 -314.76903086 276.36602945 -312.13671875 277.37890625 C-300.07969016 282.34858592 -296.13616308 292.25732197 -290.8671875 303.53125 C-289.88168796 305.5192563 -288.87878837 307.49763494 -287.87426758 309.47607422 C-286.91514735 311.37249959 -285.97412066 313.27711775 -285.03515625 315.18359375 C-282.33800435 320.62576068 -279.54232567 326.01653302 -276.7421875 331.40625 C-276.25113525 332.35733643 -275.76008301 333.30842285 -275.25415039 334.28833008 C-272.01232181 340.51183715 -268.54598148 346.55584909 -264.8671875 352.53125 C-264.29556885 351.53834961 -264.29556885 351.53834961 -263.71240234 350.52539062 C-256.793143 338.51023219 -249.86328972 326.50188936 -242.8671875 314.53125 C-236.12003977 302.98403486 -229.43379374 291.40222871 -222.75830078 279.81347656 C-219.00690726 273.30253743 -215.25027756 266.79461806 -211.49462891 260.28613281 C-208.35536504 254.84539664 -205.21737253 249.40393523 -202.08203125 243.9609375 C-195.46577633 232.47818103 -188.82328739 221.01164099 -182.13647461 209.56982422 C-177.85473833 202.23812521 -173.60498743 194.88842019 -169.3671875 187.53125 C-163.9880467 178.19261793 -158.57459303 168.87484683 -153.13671875 159.5703125 C-148.21609007 151.14442699 -143.34003167 142.69326156 -138.47045898 134.23779297 C-134.3159293 127.0287306 -130.13163371 119.83775808 -125.9296875 112.65625 C-120.5092457 103.38864656 -115.16778306 94.07765368 -109.85198975 84.74984741 C-104.56207086 75.46977183 -99.22474214 66.2186114 -93.81567383 57.00732422 C-91.12197615 52.41754526 -88.4553351 47.81822467 -85.8671875 43.16796875 C-75.16212909 24.00769134 -61.68604823 10.51625837 -40.37277222 3.35754395 C-26.97508724 -0.16657738 -13.78303745 -0.05136747 0 0 Z " fill="#4B6EAD" transform="translate(648.8671875,74.46875)"/>
<path d="M0 0 C1.46272591 -0.00503792 1.46272591 -0.00503792 2.95500183 -0.01017761 C6.16052546 -0.01963158 9.36599652 -0.02162806 12.5715332 -0.02270508 C14.81582154 -0.02592197 17.06010967 -0.02928637 19.30439758 -0.03279114 C24.00404343 -0.03876886 28.70367093 -0.04063248 33.40332031 -0.04003906 C39.39698195 -0.03993762 45.39052463 -0.05357707 51.38415813 -0.07081127 C56.01956207 -0.08198375 60.65493776 -0.08395665 65.29035378 -0.08342934 C67.49852724 -0.08460204 69.7067016 -0.08898352 71.91486168 -0.0967617 C104.55923407 -0.20097031 104.55923407 -0.20097031 113.93481445 7.14526367 C117.76430745 11.50910453 118.37562565 15.70994001 118.26293945 21.48510742 C116.89806485 32.5503408 110.14163269 42.24261649 104.48022461 51.5690918 C101.50170271 56.53423605 98.63261596 61.56308365 95.74731445 66.58276367 C94.45186791 68.8315344 93.15629344 71.08023142 91.8605957 73.32885742 C91.2104248 74.45791504 90.56025391 75.58697266 89.89038086 76.75024414 C86.74149393 82.21696344 83.58800623 87.68102665 80.43481445 93.14526367 C76.92835616 99.22241754 73.42206744 105.2996684 69.91784668 111.37811279 C68.90862341 113.12867608 67.89927609 114.87916778 66.88989258 116.62963867 C65.63313786 118.80918532 64.37660859 120.988862 63.12036133 123.16870117 C60.16588254 128.29199846 57.20123561 133.40908106 54.2199707 138.5168457 C53.60130127 139.57694855 52.98263184 140.63705139 52.34521484 141.72927856 C51.87978271 142.52655365 51.41435059 143.32382874 50.93481445 144.14526367 C52.14258041 144.12607376 53.35034637 144.10688385 54.5947113 144.08711243 C65.99672321 143.90799101 77.398868 143.74534453 88.80134487 143.59867573 C94.66296817 143.52275283 100.52439312 143.44110045 106.38574219 143.34619141 C112.04606365 143.25475099 117.70640659 143.17857359 123.3670826 143.11281395 C125.52281371 143.08511977 127.6784824 143.05199851 129.8340435 143.01326942 C132.86170428 142.95981373 135.88901564 142.92595381 138.91699219 142.89648438 C139.80100708 142.87634781 140.68502197 142.85621124 141.5958252 142.83546448 C148.02639988 142.80250205 154.75767002 143.42852625 159.82121944 147.75830555 C164.05741015 152.22899674 165.80715177 156.63198665 166.0324707 162.83276367 C165.62168756 175.45202188 158.15482618 185.72704143 151.74731445 196.20776367 C150.41024286 198.41541054 149.07431381 200.62374977 147.73950195 202.83276367 C147.08949219 203.9078418 146.43948242 204.98291992 145.76977539 206.09057617 C143.25879834 210.27063802 140.80520812 214.48189832 138.37231445 218.70776367 C137.94217041 219.45413086 137.51202637 220.20049805 137.06884766 220.96948242 C136.17480181 222.52142348 135.28100866 224.07351013 134.38745117 225.62573242 C97.11362581 290.27545978 97.11362581 290.27545978 67.93481445 298.14526367 C62.60984572 299.28140468 57.48674016 299.24370108 52.07397461 299.16699219 C51.09774139 299.15738464 50.12150818 299.1477771 49.11569214 299.13787842 C45.90167773 299.10500215 42.68780412 299.06462665 39.47387695 299.02416992 C37.24043264 298.99985769 35.00698318 298.97601469 32.77352905 298.95262146 C26.9045015 298.88989034 21.03556556 298.82079269 15.16662598 298.75036621 C9.1740332 298.67958356 3.18137565 298.61482607 -2.8112793 298.54956055 C-14.56265258 298.42068966 -26.3139379 298.28509241 -38.06518555 298.14526367 C-38.50994232 298.92407898 -38.9546991 299.70289429 -39.41293335 300.50531006 C-41.10253938 303.46374205 -42.79234279 306.42206113 -44.48226929 309.38031006 C-45.20626299 310.64776336 -45.93018355 311.91525845 -46.65402222 313.18280029 C-56.94934766 331.21102725 -67.32875199 349.1895907 -77.80053711 367.1159668 C-87.7448387 384.14899935 -97.56480513 401.25322023 -107.34240723 418.38232422 C-114.26495208 430.50859871 -121.23762401 442.60445736 -128.2878418 454.65698242 C-135.36366273 466.7562425 -142.36832603 478.89287047 -149.31176758 491.06835938 C-153.92393834 499.15511734 -158.56868376 507.22202949 -163.2409668 515.27416992 C-166.60930859 521.07944221 -169.96199267 526.89373222 -173.31518555 532.70776367 C-173.94875977 533.80604492 -174.58233398 534.90432617 -175.23510742 536.03588867 C-178.44697465 541.60398948 -181.65742969 547.17289951 -184.8659668 552.74291992 C-191.47336312 564.20995519 -198.10554861 575.66163713 -204.78491211 587.08691406 C-208.52196192 593.48431709 -212.23199748 599.89672433 -215.92724609 606.31835938 C-225.75637352 623.39906736 -225.75637352 623.39906736 -230.25268555 630.95776367 C-230.90624023 632.05733398 -231.55979492 633.1569043 -232.2331543 634.28979492 C-236.12413828 640.35442028 -240.05147944 644.80736164 -247.06518555 647.14526367 C-253.18816333 647.74555561 -257.05508272 646.43919554 -262.06518555 643.14526367 C-268.47766747 637.75086948 -272.59226418 631.53605871 -276.62768555 624.27026367 C-277.22137939 623.22725098 -277.81507324 622.18423828 -278.42675781 621.10961914 C-279.68120659 618.90550714 -280.93072022 616.69857978 -282.17553711 614.48901367 C-284.63320617 610.14014604 -287.13398984 605.81694114 -289.63671875 601.49389648 C-291.51441584 598.24999849 -293.38626103 595.00278867 -295.2565918 591.75463867 C-298.49845378 586.12637118 -301.7481904 580.50268977 -304.99951172 574.87988281 C-307.48183387 570.58258314 -309.95637057 566.28082611 -312.43041992 561.97875977 C-313.88820041 559.45202734 -315.35727563 556.93235661 -316.83081055 554.41479492 C-328.56086376 534.22617668 -333.60657785 513.4675106 -329.06518555 490.14526367 C-325.00921538 476.01418952 -316.3098505 463.23812682 -308.90893555 450.69213867 C-304.89520863 443.88034136 -300.97592559 437.01638452 -297.06518555 430.14526367 C-291.52664145 420.42327869 -285.93142589 410.73629732 -280.28173828 401.07836914 C-274.12751813 390.55441742 -268.04148559 379.9914623 -261.95629883 369.42749023 C-258.82838406 363.99866425 -255.69660107 358.57207086 -252.56518555 353.14526367 C-251.31516676 350.97860785 -250.06516676 348.81194118 -248.81518555 346.64526367 C-246.31518555 342.31193034 -243.81518555 337.97859701 -241.31518555 333.64526367 C-240.69635498 332.57260254 -240.07752441 331.49994141 -239.43994141 330.39477539 C-238.19083037 328.22969297 -236.94164425 326.06465385 -235.69238281 323.8996582 C-232.55316245 318.45910661 -229.41527992 313.01779151 -226.2800293 307.57495117 C-219.66377438 296.0921947 -213.02128544 284.62565466 -206.33447266 273.18383789 C-201.41384897 264.75815974 -196.53793898 256.30711768 -191.66845703 247.85180664 C-187.51392703 240.64274372 -183.32955623 233.45181626 -179.12768555 226.27026367 C-174.07671532 217.63249689 -169.0849415 208.96206638 -164.12768555 200.27026367 C-153.6227243 181.85201842 -143.02879205 163.48655385 -132.33203125 145.17895508 C-126.16573425 134.61879283 -120.06013515 124.02383822 -113.95629883 113.42749023 C-110.82838405 107.99866422 -107.69656589 102.57209119 -104.56518555 97.14526367 C-103.31908716 94.9851101 -102.07299341 92.82495385 -100.8269043 90.66479492 C-98.28902562 86.26567292 -95.74981972 81.86732046 -93.2097168 77.46948242 C-91.93236232 75.25724904 -90.65501847 73.0450095 -89.37768555 70.83276367 C-88.75772705 69.75969971 -88.13776855 68.68663574 -87.49902344 67.58105469 C-84.53768004 62.45064169 -81.58792098 57.31429475 -78.66674805 52.16088867 C-78.13138428 51.21769775 -77.59602051 50.27450684 -77.04443359 49.30273438 C-76.05852498 47.56338239 -75.07534519 45.82247898 -74.09570312 44.07958984 C-61.90045563 22.56935723 -47.31075964 9.32658494 -23.31518555 2.39526367 C-15.59151996 0.30647361 -7.94779593 -0.00398173 0 0 Z " fill="#4B6EAD" transform="translate(756.065185546875,263.854736328125)"/>
<path d="M0 0 C1.12770309 -0.00671722 2.25540619 -0.01343445 3.4172821 -0.02035522 C7.14354879 -0.03934193 10.86963522 -0.0432606 14.59594727 -0.04541016 C17.19702731 -0.0518404 19.79810664 -0.05856893 22.39918518 -0.06558228 C27.85565353 -0.07836163 33.31207339 -0.08134883 38.76855469 -0.08007812 C45.03965718 -0.07888118 51.31041302 -0.099897 57.58142799 -0.13156545 C63.64693354 -0.16108519 69.71227565 -0.16804819 75.7778492 -0.16685867 C78.34163891 -0.16920503 80.90543171 -0.1779735 83.46917534 -0.19352341 C96.80604216 -0.26680421 109.07764165 -0.30094964 121.72485352 4.29052734 C123.12609718 4.75744492 123.12609718 4.75744492 124.5556488 5.23379517 C131.67585663 7.67113945 137.65262053 11.93052285 143.72485352 16.29052734 C144.79735352 17.05365234 145.86985352 17.81677734 146.97485352 18.60302734 C155.41218229 26.84859865 160.77089243 37.39783278 166.49438477 47.58349609 C170.28001467 54.3107961 174.2247003 60.94132629 178.18457031 67.56713867 C181.31869798 72.83329201 184.31711733 78.15455725 187.2331543 83.54443359 C189.68075818 88.05026805 192.20122412 92.51444905 194.72485352 96.97802734 C195.55907837 98.45408447 195.55907837 98.45408447 196.41015625 99.95996094 C200.48192683 107.14369918 204.61789176 114.28811873 208.78735352 121.41552734 C213.4102004 129.32146238 218.0283753 137.22974295 222.59985352 145.16552734 C223.11813721 146.05771973 223.6364209 146.94991211 224.17041016 147.86914062 C224.63954834 148.68624512 225.10868652 149.50334961 225.59204102 150.34521484 C226.21248291 151.42005127 226.21248291 151.42005127 226.84545898 152.51660156 C227.72485352 154.29052734 227.72485352 154.29052734 227.72485352 156.29052734 C223.07517276 155.68189333 219.13610662 154.40131567 214.78735352 152.66552734 C204.28746098 148.60422467 193.54290375 145.38733348 182.72485352 142.29052734 C181.51998291 141.94441406 181.51998291 141.94441406 180.29077148 141.59130859 C156.01931799 134.75573816 130.849949 131.33597389 105.84985352 128.47802734 C104.94130615 128.37288818 104.03275879 128.26774902 103.09667969 128.15942383 C87.25382264 126.34614531 71.39644551 124.63001051 55.45922852 125.92333984 C32.92921191 127.54117701 32.92921191 127.54117701 25.76293945 122.00048828 C20.54231843 115.73532186 17.39401872 108.49556255 14.32104492 101.01171875 C11.91106942 95.22362595 8.67923054 89.89141388 5.53735352 84.47802734 C4.38956677 82.41994372 3.24499735 80.36006228 2.10375977 78.29833984 C-1.17747867 72.42565264 -4.5827231 66.63234123 -8.02514648 60.85302734 C-12.05346464 54.07909715 -16.04131362 47.28772653 -19.90014648 40.41552734 C-20.30201172 39.70855713 -20.70387695 39.00158691 -21.11791992 38.27319336 C-25.67993819 30.0755098 -28.54197036 22.82729133 -27.27514648 13.29052734 C-25.52630481 7.93531723 -22.16909603 4.9332601 -17.27514648 2.29052734 C-11.58437045 -0.19385507 -6.09700279 -0.00522197 0 0 Z " fill="#9ECB3E" transform="translate(87.275146484375,151.70947265625)"/>
<path d="M0 0 C2.45871473 -0.02329841 4.91737667 -0.03912768 7.37615967 -0.05318069 C8.11679153 -0.06139375 8.8574234 -0.0696068 9.62049866 -0.07806873 C16.00806274 -0.10061927 21.3129979 0.3333487 26.29803467 4.53641891 C30.57260735 9.0546727 32.37467906 13.43645393 32.60272217 19.71220016 C32.19193902 32.33145837 24.72507765 42.60647792 18.31756592 53.08720016 C16.98049433 55.29484703 15.64456527 57.50318626 14.30975342 59.71220016 C13.65974365 60.78727829 13.00973389 61.86235641 12.34002686 62.97001266 C9.8290498 67.15007452 7.37545958 71.36133482 4.94256592 75.58720016 C4.51242187 76.33356735 4.08227783 77.07993454 3.63909912 77.84891891 C2.74505328 79.40085997 1.85126012 80.95294662 0.95770264 82.50516891 C-36.31612273 147.15489627 -36.31612273 147.15489627 -65.49493408 155.02470016 C-70.79170999 156.15229903 -75.88043835 156.12351241 -81.26397705 156.04642868 C-82.2304567 156.03682114 -83.19693634 156.02721359 -84.19270325 156.01731491 C-87.37425287 155.98444157 -90.55566014 155.94406498 -93.73712158 155.90360641 C-95.94814559 155.8792939 -98.15917481 155.85545091 -100.37020874 155.83205795 C-106.18005319 155.76932968 -111.98980502 155.70023124 -117.79956055 155.6298027 C-123.73182978 155.55901747 -129.6641645 155.49426153 -135.59649658 155.42899704 C-147.22938106 155.30012983 -158.8621766 155.16453234 -170.49493408 155.02470016 C-170.82493408 154.03470016 -171.15493408 153.04470016 -171.49493408 152.02470016 C-170.12384033 149.38016891 -170.12384033 149.38016891 -168.05743408 146.21220016 C-167.31062136 145.04552267 -166.56589635 143.87750665 -165.82305908 142.70829391 C-165.24394775 141.80119675 -165.24394775 141.80119675 -164.65313721 140.87577438 C-162.78547444 137.89082095 -161.04310951 134.83773116 -159.30743408 131.77470016 C-158.69512939 130.69704391 -158.08282471 129.61938766 -157.45196533 128.50907516 C-155.98604473 125.89909277 -154.5303849 123.28438703 -153.08087158 120.66532516 C-150.54092704 116.0883094 -147.93496471 111.55188055 -145.30743408 107.02470016 C-144.83620117 106.2108989 -144.36496826 105.39709763 -143.87945557 104.55863571 C-141.50277223 100.46023552 -139.11305742 96.37018158 -136.69805908 92.29423141 C-136.25357422 91.54335251 -135.80908936 90.7924736 -135.35113525 90.01884079 C-134.51788964 88.61369212 -133.68229572 87.20993199 -132.84381104 85.80790329 C-130.17469083 81.30851314 -127.79074297 76.72614023 -125.49493408 72.02470016 C-124.83493408 72.02470016 -124.17493408 72.02470016 -123.49493408 72.02470016 C-123.26805908 71.22032516 -123.04118408 70.41595016 -122.80743408 69.58720016 C-121.1586182 65.11184277 -118.88948996 61.13748699 -116.49493408 57.02470016 C-115.83493408 57.02470016 -115.17493408 57.02470016 -114.49493408 57.02470016 C-114.38020752 56.29895798 -114.26548096 55.57321579 -114.14727783 54.82548141 C-112.1385536 46.20119832 -105.87034416 38.3620205 -101.17559814 30.93851852 C-98.24385273 26.28368123 -95.526152 21.55936225 -92.93634033 16.70438766 C-91.25285212 13.57465077 -89.51161993 10.4832381 -87.74493408 7.39970016 C-86.88641846 5.89536423 -86.88641846 5.89536423 -86.01055908 4.36063766 C-84.49493408 2.02470016 -84.49493408 2.02470016 -82.49493408 1.02470016 C-80.05810493 0.90255479 -77.64793908 0.8390705 -75.20977783 0.8193779 C-74.4581134 0.8094783 -73.70644897 0.7995787 -72.93200684 0.78937912 C-70.43218164 0.7576615 -67.93233833 0.73293024 -65.43243408 0.70829391 C-63.68478942 0.68769716 -61.93714943 0.66670002 -60.18951416 0.64532089 C-55.56699737 0.58999215 -50.94443389 0.54070453 -46.32183838 0.4924736 C-42.60178518 0.4526354 -38.88178971 0.4084701 -35.16178894 0.36403942 C-30.66868886 0.31051691 -26.17556447 0.25920009 -21.68243408 0.20829391 C-20.84759491 0.1987361 -20.01275574 0.18917828 -19.15261841 0.17933083 C-14.3871544 0.12571825 -9.62171006 0.07927109 -4.8560791 0.04329681 C-3.23737194 0.03054769 -1.61867805 0.01602512 0 0 Z " fill="#9ECB3E" transform="translate(889.4949340820313,406.9752998352051)"/>
<path d="M0 0 C0.66 0.33 1.32 0.66 2 1 C-7.22551253 9.81548975 -7.22551253 9.81548975 -13 11 C-9.57933564 5.94336573 -5.08997609 3.16492103 0 0 Z " fill="#5A79A9" transform="translate(710,276)"/>
<path d="M0 0 C1.13200586 3.39601757 1.14423449 4.64902756 0 8 C-2.5625 10.3125 -2.5625 10.3125 -5 12 C-5 8.55639368 -4.20408468 7.25204608 -2.5 4.3125 C-2.0359375 3.50425781 -1.571875 2.69601562 -1.09375 1.86328125 C-0.7328125 1.24839844 -0.371875 0.63351562 0 0 Z " fill="#5878A9" transform="translate(637,386)"/>
<path d="M0 0 C1 3 1 3 0.25 5.125 C-1 7 -1 7 -4 8 C-4.73323796 10.01508358 -4.73323796 10.01508358 -5 12 C-5.33 11.34 -5.66 10.68 -6 10 C-5.0390625 7.87109375 -5.0390625 7.87109375 -3.625 5.4375 C-3.16351562 4.63183594 -2.70203125 3.82617188 -2.2265625 2.99609375 C-1 1 -1 1 0 0 Z " fill="#83B164" transform="translate(740,522)"/>
<path d="M0 0 C0.33 0 0.66 0 1 0 C1.2253459 3.30507324 1.34500438 5.39213514 -0.3125 8.3125 C-2 10 -2 10 -5 11 C-3.55049545 7.2089881 -1.84827434 3.6125362 0 0 Z " fill="#5B73A9" transform="translate(495,235)"/>
<path d="M0 0 C0.33 0.99 0.66 1.98 1 3 C-0.25 5.1875 -0.25 5.1875 -2 7 C-2.99 7 -3.98 7 -5 7 C-5 7.99 -5 8.98 -5 10 C-5.66 10 -6.32 10 -7 10 C-5.25 5.125 -5.25 5.125 -3 4 C-2.67 3.01 -2.34 2.02 -2 1 C-1.34 0.67 -0.68 0.34 0 0 Z " fill="#90C251" transform="translate(738,529)"/>
<path d="M0 0 C0.99 0.66 1.98 1.32 3 2 C2.34 2 1.68 2 1 2 C0.7525 2.94875 0.505 3.8975 0.25 4.875 C-1 8 -1 8 -5 10 C-3.35 6.7 -1.7 3.4 0 0 Z " fill="#5D76AA" transform="translate(592,464)"/>
<path d="M0 0 C1.24546405 2.49092811 0.7767578 3.41080733 0 6 C-0.66 6 -1.32 6 -2 6 C-2.28875 6.804375 -2.5775 7.60875 -2.875 8.4375 C-4 11 -4 11 -6 12 C-4.68139111 7.38486888 -2.78644563 3.90102388 0 0 Z " fill="#7FAA6B" transform="translate(786,442)"/>
<path d="M0 0 C-1.33488128 3.59391114 -2.96022723 6.75490696 -5 10 C-6.05609899 6.83170302 -6.13055309 6.01480825 -5 3 C-2.53571429 0 -2.53571429 0 0 0 Z " fill="#5B7AAC" transform="translate(578,803)"/>
<path d="M0 0 C0.66 0 1.32 0 2 0 C2.6875 2.3125 2.6875 2.3125 3 5 C1.5625 6.8125 1.5625 6.8125 0 8 C-1.125 2.25 -1.125 2.25 0 0 Z " fill="#5275A9" transform="translate(577,403)"/>
<path d="M0 0 C0.66 0 1.32 0 2 0 C5.22265625 5.2734375 5.22265625 5.2734375 6 7 C5.67 7.66 5.34 8.32 5 9 C4.34 9 3.68 9 3 9 C3 8.01 3 7.02 3 6 C2.505 5.505 2.01 5.01 1.5 4.5 C1.005 4.005 0.51 3.51 0 3 C0 2.01 0 1.02 0 0 Z " fill="#ABCA56" transform="translate(278,245)"/>
<path d="M0 0 C0.99 0.33 1.98 0.66 3 1 C1.35 4.3 -0.3 7.6 -2 11 C-3.28485596 5.86057616 -2.22194431 4.62164416 0 0 Z " fill="#5E7AAC" transform="translate(719,160)"/>
<path d="M0 0 C0.99 0 1.98 0 3 0 C1.92598892 2.91517292 1.22189824 4.77810176 -1 7 C-1.625 4.625 -1.625 4.625 -2 2 C-1.34 1.34 -0.68 0.68 0 0 Z " fill="#5676A3" transform="translate(584,787)"/>
<path d="M0 0 C0.99 0.33 1.98 0.66 3 1 C1.68 3.31 0.36 5.62 -1 8 C-1.33 8 -1.66 8 -2 8 C-2.125 5.125 -2.125 5.125 -2 2 C-1.34 1.34 -0.68 0.68 0 0 Z " fill="#547296" transform="translate(753,495)"/>
<path d="M0 0 C1.98 0.495 1.98 0.495 4 1 C2.68 3.31 1.36 5.62 0 8 C-1.09658936 4.71023192 -0.79953138 3.28696233 0 0 Z " fill="#5679AD" transform="translate(857,313)"/>
<path d="M0 0 C0.99 0 1.98 0 3 0 C1.8141763 3.37503669 0.72426311 5.64722731 -2 8 C-2 6.35 -2 4.7 -2 3 C-1.34 3 -0.68 3 0 3 C0 2.01 0 1.02 0 0 Z " fill="#5C7AA8" transform="translate(725,150)"/>
<path d="M0 0 C0.66 0.33 1.32 0.66 2 1 C0.68 3.31 -0.64 5.62 -2 8 C-2.33 8 -2.66 8 -3 8 C-3 6.02 -3 4.04 -3 2 C-2.01 2 -1.02 2 0 2 C0 1.34 0 0.68 0 0 Z " fill="#597AA9" transform="translate(605,753)"/>
<path d="M0 0 C0 1.98 0 3.96 0 6 C-1.65 6 -3.3 6 -5 6 C-2.84615385 0 -2.84615385 0 0 0 Z " fill="#5272A4" transform="translate(499,629)"/>
<path d="M0 0 C0.99 0 1.98 0 3 0 C2.40072174 3.35595828 1.15377564 5.37801226 -1 8 C-0.67 5.36 -0.34 2.72 0 0 Z " fill="#5A77A3" transform="translate(698,589)"/>
<path d="M0 0 C0.6875 1.75 0.6875 1.75 1 4 C-0.3125 6.25 -0.3125 6.25 -2 8 C-2.66 8 -3.32 8 -4 8 C-2.87548273 5.0280615 -1.77706209 2.66559313 0 0 Z " fill="#89BA61" transform="translate(791,434)"/>
<path d="M0 0 C0.66 0.99 1.32 1.98 2 3 C1 6 1 6 -1.0625 7.1875 C-1.701875 7.455625 -2.34125 7.72375 -3 8 C-1.125 2.25 -1.125 2.25 0 0 Z " fill="#89B85C" transform="translate(795,426)"/>
<path d="M0 0 C1 3 1 3 0.0625 5.1875 C-0.4634375 6.0846875 -0.4634375 6.0846875 -1 7 C-1.99 7 -2.98 7 -4 7 C-2.92598892 4.08482708 -2.22189824 2.22189824 0 0 Z " fill="#5C78A8" transform="translate(573,102)"/>
<path d="M0 0 C0.89674777 2.51089376 1.13172674 3.64535109 0.1875 6.1875 C-1 8 -1 8 -3 9 C-2.44271087 5.65626525 -1.64826111 2.96687001 0 0 Z " fill="#5975A7" transform="translate(425,356)"/>
<path d="M0 0 C0.66 0 1.32 0 2 0 C1.40072174 3.35595828 0.15377564 5.37801226 -2 8 C-1.125 1.125 -1.125 1.125 0 0 Z " fill="#5779A8" transform="translate(618,336)"/>
<path d="M0 0 C0.33 0 0.66 0 1 0 C1.36923077 4.55384615 1.36923077 4.55384615 -0.5 6.8125 C-0.995 7.204375 -1.49 7.59625 -2 8 C-2.66 7.67 -3.32 7.34 -4 7 C-2.68 4.69 -1.36 2.38 0 0 Z " fill="#5977AD" transform="translate(537,163)"/>
<path d="M0 0 C0.66 0.99 1.32 1.98 2 3 C0.7260411 5.03833424 -0.61061923 7.03852126 -2 9 C-2.66 9 -3.32 9 -4 9 C-2.80100302 5.9168649 -1.52299523 2.93720508 0 0 Z " fill="#5D7CA7" transform="translate(542,154)"/>
</svg>
